<svg xmlns="http://www.w3.org/2000/svg" viewBox="0 0 2048 320" width="2048" height="320"><rect x="35" y="265.4" width="10" height="30.6" fill="#8a5a36" stroke="#1c2546" stroke-width="3"/><circle cx="40" cy="255.2" r="34" fill="#1c2546" stroke="#1c2546" stroke-width="6"/><circle cx="19.6" cy="268.8" r="23.799999999999997" fill="#1c2546" stroke="#1c2546" stroke-width="6"/><circle cx="60.4" cy="268.8" r="23.799999999999997" fill="#1c2546" stroke="#1c2546" stroke-width="6"/><circle cx="40" cy="255.2" r="34" fill="#5cb346"/><circle cx="19.6" cy="268.8" r="23.799999999999997" fill="#5cb346"/><circle cx="60.4" cy="268.8" r="23.799999999999997" fill="#5cb346"/><rect x="95" y="256.4" width="10" height="39.6" fill="#8a5a36" stroke="#1c2546" stroke-width="3"/><circle cx="100" cy="243.2" r="44" fill="#1c2546" stroke="#1c2546" stroke-width="6"/><circle cx="73.6" cy="260.8" r="30.799999999999997" fill="#1c2546" stroke="#1c2546" stroke-width="6"/><circle cx="126.4" cy="260.8" r="30.799999999999997" fill="#1c2546" stroke="#1c2546" stroke-width="6"/><circle cx="100" cy="243.2" r="44" fill="#3f8f3a"/><circle cx="73.6" cy="260.8" r="30.799999999999997" fill="#3f8f3a"/><circle cx="126.4" cy="260.8" r="30.799999999999997" fill="#3f8f3a"/><rect x="165" y="269" width="10" height="27" fill="#8a5a36" stroke="#1c2546" stroke-width="3"/><circle cx="170" cy="260" r="30" fill="#1c2546" stroke="#1c2546" stroke-width="6"/><circle cx="152" cy="272" r="21" fill="#1c2546" stroke="#1c2546" stroke-width="6"/><circle cx="188" cy="272" r="21" fill="#1c2546" stroke="#1c2546" stroke-width="6"/><circle cx="170" cy="260" r="30" fill="#5cb346"/><circle cx="152" cy="272" r="21" fill="#5cb346"/><circle cx="188" cy="272" r="21" fill="#5cb346"/><rect x="210" y="220" width="260" height="76" fill="#efe6cf" stroke="#1c2546" stroke-width="4" stroke-linejoin="round"/><rect x="216" y="278" width="248" height="9" fill="#2f6fd1"/><rect x="216" y="264" width="248" height="9" fill="#f4c531"/><rect x="216" y="250" width="248" height="9" fill="#2f6fd1"/><rect x="216" y="236" width="248" height="9" fill="#f4c531"/><path d="M204 220H476L460 204H220Z" fill="#3f8f3a" stroke="#1c2546" stroke-width="4" stroke-linejoin="round"/><rect x="454" y="146" width="8" height="90" fill="#1c2546"/><rect x="436" y="124" width="44" height="26" fill="#f4c531" stroke="#1c2546" stroke-width="3" stroke-linejoin="round"/><rect x="515" y="260" width="10" height="36" fill="#8a5a36" stroke="#1c2546" stroke-width="3"/><circle cx="520" cy="248" r="40" fill="#1c2546" stroke="#1c2546" stroke-width="6"/><circle cx="496" cy="264" r="28" fill="#1c2546" stroke="#1c2546" stroke-width="6"/><circle cx="544" cy="264" r="28" fill="#1c2546" stroke="#1c2546" stroke-width="6"/><circle cx="520" cy="248" r="40" fill="#3f8f3a"/><circle cx="496" cy="264" r="28" fill="#3f8f3a"/><circle cx="544" cy="264" r="28" fill="#3f8f3a"/><rect x="575" y="269" width="10" height="27" fill="#8a5a36" stroke="#1c2546" stroke-width="3"/><circle cx="580" cy="260" r="30" fill="#1c2546" stroke="#1c2546" stroke-width="6"/><circle cx="562" cy="272" r="21" fill="#1c2546" stroke="#1c2546" stroke-width="6"/><circle cx="598" cy="272" r="21" fill="#1c2546" stroke="#1c2546" stroke-width="6"/><circle cx="580" cy="260" r="30" fill="#5cb346"/><circle cx="562" cy="272" r="21" fill="#5cb346"/><circle cx="598" cy="272" r="21" fill="#5cb346"/><rect x="640" y="121" width="520" height="175" fill="#fbf4e2" stroke="#1c2546" stroke-width="4" stroke-linejoin="round"/><rect x="664" y="135" width="40" height="20" fill="#5fb8e8" stroke="#1c2546" stroke-width="3" stroke-linejoin="round"/><rect x="724" y="135" width="40" height="20" fill="#5fb8e8" stroke="#1c2546" stroke-width="3" stroke-linejoin="round"/><rect x="784" y="135" width="40" height="20" fill="#5fb8e8" stroke="#1c2546" stroke-width="3" stroke-linejoin="round"/><rect x="964" y="135" width="40" height="20" fill="#5fb8e8" stroke="#1c2546" stroke-width="3" stroke-linejoin="round"/><rect x="1024" y="135" width="40" height="20" fill="#5fb8e8" stroke="#1c2546" stroke-width="3" stroke-linejoin="round"/><rect x="1084" y="135" width="40" height="20" fill="#5fb8e8" stroke="#1c2546" stroke-width="3" stroke-linejoin="round"/><rect x="664" y="166" width="40" height="20" fill="#5fb8e8" stroke="#1c2546" stroke-width="3" stroke-linejoin="round"/><rect x="724" y="166" width="40" height="20" fill="#5fb8e8" stroke="#1c2546" stroke-width="3" stroke-linejoin="round"/><rect x="784" y="166" width="40" height="20" fill="#5fb8e8" stroke="#1c2546" stroke-width="3" stroke-linejoin="round"/><rect x="964" y="166" width="40" height="20" fill="#5fb8e8" stroke="#1c2546" stroke-width="3" stroke-linejoin="round"/><rect x="1024" y="166" width="40" height="20" fill="#5fb8e8" stroke="#1c2546" stroke-width="3" stroke-linejoin="round"/><rect x="1084" y="166" width="40" height="20" fill="#5fb8e8" stroke="#1c2546" stroke-width="3" stroke-linejoin="round"/><rect x="664" y="197" width="40" height="20" fill="#5fb8e8" stroke="#1c2546" stroke-width="3" stroke-linejoin="round"/><rect x="724" y="197" width="40" height="20" fill="#5fb8e8" stroke="#1c2546" stroke-width="3" stroke-linejoin="round"/><rect x="784" y="197" width="40" height="20" fill="#5fb8e8" stroke="#1c2546" stroke-width="3" stroke-linejoin="round"/><rect x="964" y="197" width="40" height="20" fill="#5fb8e8" stroke="#1c2546" stroke-width="3" stroke-linejoin="round"/><rect x="1024" y="197" width="40" height="20" fill="#5fb8e8" stroke="#1c2546" stroke-width="3" stroke-linejoin="round"/><rect x="1084" y="197" width="40" height="20" fill="#5fb8e8" stroke="#1c2546" stroke-width="3" stroke-linejoin="round"/><rect x="664" y="228" width="40" height="20" fill="#5fb8e8" stroke="#1c2546" stroke-width="3" stroke-linejoin="round"/><rect x="724" y="228" width="40" height="20" fill="#5fb8e8" stroke="#1c2546" stroke-width="3" stroke-linejoin="round"/><rect x="784" y="228" width="40" height="20" fill="#5fb8e8" stroke="#1c2546" stroke-width="3" stroke-linejoin="round"/><rect x="964" y="228" width="40" height="20" fill="#5fb8e8" stroke="#1c2546" stroke-width="3" stroke-linejoin="round"/><rect x="1024" y="228" width="40" height="20" fill="#5fb8e8" stroke="#1c2546" stroke-width="3" stroke-linejoin="round"/><rect x="1084" y="228" width="40" height="20" fill="#5fb8e8" stroke="#1c2546" stroke-width="3" stroke-linejoin="round"/><rect x="664" y="259" width="40" height="20" fill="#5fb8e8" stroke="#1c2546" stroke-width="3" stroke-linejoin="round"/><rect x="724" y="259" width="40" height="20" fill="#5fb8e8" stroke="#1c2546" stroke-width="3" stroke-linejoin="round"/><rect x="784" y="259" width="40" height="20" fill="#5fb8e8" stroke="#1c2546" stroke-width="3" stroke-linejoin="round"/><rect x="964" y="259" width="40" height="20" fill="#5fb8e8" stroke="#1c2546" stroke-width="3" stroke-linejoin="round"/><rect x="1024" y="259" width="40" height="20" fill="#5fb8e8" stroke="#1c2546" stroke-width="3" stroke-linejoin="round"/><rect x="1084" y="259" width="40" height="20" fill="#5fb8e8" stroke="#1c2546" stroke-width="3" stroke-linejoin="round"/><rect x="840" y="97" width="120" height="199" fill="#5fb8e8" stroke="#1c2546" stroke-width="4" stroke-linejoin="round"/><path d="M870 97V296M900 97V296M930 97V296" stroke="#1c2546" stroke-width="3"/><rect x="632" y="113" width="536" height="16" fill="#d9614c" stroke="#1c2546" stroke-width="4" stroke-linejoin="round"/><rect x="830" y="83" width="140" height="14" fill="#d9614c" stroke="#1c2546" stroke-width="4" stroke-linejoin="round"/><rect x="872" y="252" width="56" height="44" fill="#1c2546" stroke="#1c2546" stroke-width="2" stroke-linejoin="round"/><rect x="898" y="21" width="5" height="62" fill="#1c2546"/><path d="M903 23L945 34L903 45Z" fill="#f6c632" stroke="#1c2546" stroke-width="3" stroke-linejoin="round"/><rect x="1195" y="263.6" width="10" height="32.4" fill="#8a5a36" stroke="#1c2546" stroke-width="3"/><circle cx="1200" cy="252.8" r="36" fill="#1c2546" stroke="#1c2546" stroke-width="6"/><circle cx="1178.4" cy="267.2" r="25.2" fill="#1c2546" stroke="#1c2546" stroke-width="6"/><circle cx="1221.6" cy="267.2" r="25.2" fill="#1c2546" stroke="#1c2546" stroke-width="6"/><circle cx="1200" cy="252.8" r="36" fill="#5cb346"/><circle cx="1178.4" cy="267.2" r="25.2" fill="#5cb346"/><circle cx="1221.6" cy="267.2" r="25.2" fill="#5cb346"/><rect x="1255" y="254.6" width="10" height="41.4" fill="#8a5a36" stroke="#1c2546" stroke-width="3"/><circle cx="1260" cy="240.8" r="46" fill="#1c2546" stroke="#1c2546" stroke-width="6"/><circle cx="1232.4" cy="259.2" r="32.199999999999996" fill="#1c2546" stroke="#1c2546" stroke-width="6"/><circle cx="1287.6" cy="259.2" r="32.199999999999996" fill="#1c2546" stroke="#1c2546" stroke-width="6"/><circle cx="1260" cy="240.8" r="46" fill="#3f8f3a"/><circle cx="1232.4" cy="259.2" r="32.199999999999996" fill="#3f8f3a"/><circle cx="1287.6" cy="259.2" r="32.199999999999996" fill="#3f8f3a"/><rect x="1310" y="186" width="300" height="110" fill="#fbf4e2" stroke="#1c2546" stroke-width="4" stroke-linejoin="round"/><path d="M1302 186Q1460 116 1618 186Z" fill="#d9614c" stroke="#1c2546" stroke-width="4" stroke-linejoin="round"/><rect x="1334" y="226" width="38" height="26" fill="#5fb8e8" stroke="#1c2546" stroke-width="3" stroke-linejoin="round"/><rect x="1388" y="226" width="38" height="26" fill="#5fb8e8" stroke="#1c2546" stroke-width="3" stroke-linejoin="round"/><rect x="1442" y="226" width="38" height="26" fill="#5fb8e8" stroke="#1c2546" stroke-width="3" stroke-linejoin="round"/><rect x="1496" y="226" width="38" height="26" fill="#5fb8e8" stroke="#1c2546" stroke-width="3" stroke-linejoin="round"/><rect x="1550" y="226" width="38" height="26" fill="#5fb8e8" stroke="#1c2546" stroke-width="3" stroke-linejoin="round"/><rect x="1645" y="269" width="10" height="27" fill="#8a5a36" stroke="#1c2546" stroke-width="3"/><circle cx="1650" cy="260" r="30" fill="#1c2546" stroke="#1c2546" stroke-width="6"/><circle cx="1632" cy="272" r="21" fill="#1c2546" stroke="#1c2546" stroke-width="6"/><circle cx="1668" cy="272" r="21" fill="#1c2546" stroke="#1c2546" stroke-width="6"/><circle cx="1650" cy="260" r="30" fill="#5cb346"/><circle cx="1632" cy="272" r="21" fill="#5cb346"/><circle cx="1668" cy="272" r="21" fill="#5cb346"/><rect x="1690" y="220" width="260" height="76" fill="#efe6cf" stroke="#1c2546" stroke-width="4" stroke-linejoin="round"/><rect x="1696" y="278" width="248" height="9" fill="#2f6fd1"/><rect x="1696" y="264" width="248" height="9" fill="#f4c531"/><rect x="1696" y="250" width="248" height="9" fill="#2f6fd1"/><rect x="1696" y="236" width="248" height="9" fill="#f4c531"/><path d="M1684 220H1956L1940 204H1700Z" fill="#3f8f3a" stroke="#1c2546" stroke-width="4" stroke-linejoin="round"/><rect x="1934" y="146" width="8" height="90" fill="#1c2546"/><rect x="1916" y="124" width="44" height="26" fill="#f4c531" stroke="#1c2546" stroke-width="3" stroke-linejoin="round"/><rect x="1985" y="260" width="10" height="36" fill="#8a5a36" stroke="#1c2546" stroke-width="3"/><circle cx="1990" cy="248" r="40" fill="#1c2546" stroke="#1c2546" stroke-width="6"/><circle cx="1966" cy="264" r="28" fill="#1c2546" stroke="#1c2546" stroke-width="6"/><circle cx="2014" cy="264" r="28" fill="#1c2546" stroke="#1c2546" stroke-width="6"/><circle cx="1990" cy="248" r="40" fill="#3f8f3a"/><circle cx="1966" cy="264" r="28" fill="#3f8f3a"/><circle cx="2014" cy="264" r="28" fill="#3f8f3a"/><rect x="-4" y="296" width="2056" height="28" fill="#62b54a" stroke="#1c2546" stroke-width="4"/></svg>